<svg xmlns="http://www.w3.org/2000/svg" width="1200" height="800" viewBox="0 0 1200 800">


    <defs>
      <linearGradient id="bg2" x1="0" y1="0" x2="1" y2="1">
        <stop offset="0%" stop-color="#070B19"/>
        <stop offset="55%" stop-color="#0B1640"/>
        <stop offset="100%" stop-color="#0F2A5C"/>
      </linearGradient>
      <radialGradient id="orbCyan" cx="25%" cy="15%" r="60%">
        <stop offset="0%" stop-color="#4fc8ff" stop-opacity="0.35"/>
        <stop offset="65%" stop-color="#4fc8ff" stop-opacity="0"/>
      </radialGradient>
      <radialGradient id="orbOrange" cx="85%" cy="25%" r="60%">
        <stop offset="0%" stop-color="#ff7a4e" stop-opacity="0.26"/>
        <stop offset="65%" stop-color="#ff7a4e" stop-opacity="0"/>
      </radialGradient>
      <radialGradient id="orbViolet" cx="65%" cy="90%" r="70%">
        <stop offset="0%" stop-color="#b26eff" stop-opacity="0.22"/>
        <stop offset="70%" stop-color="#b26eff" stop-opacity="0"/>
      </radialGradient>
      <filter id="softGlow" x="-20%" y="-20%" width="140%" height="140%">
        <feGaussianBlur stdDeviation="8" result="blur"/>
        <feMerge>
          <feMergeNode in="blur"/>
          <feMergeNode in="SourceGraphic"/>
        </feMerge>
      </filter>
    </defs>
    
<rect width="1200" height="800" fill="url(#bg2)"/>
<rect width="1200" height="800" fill="url(#orbCyan)"/>
<rect width="1200" height="800" fill="url(#orbOrange)"/>
<!-- map card -->
<g transform="translate(110 100)">
  <rect width="980" height="600" rx="26" fill="rgba(255,255,255,0.06)" stroke="rgba(255,255,255,0.14)"/>
  <g opacity="0.14">
    <line x1="60" y1="30" x2="60" y2="570" stroke="#ffffff" stroke-width="1"/><line x1="130" y1="30" x2="130" y2="570" stroke="#ffffff" stroke-width="1"/><line x1="200" y1="30" x2="200" y2="570" stroke="#ffffff" stroke-width="1"/><line x1="270" y1="30" x2="270" y2="570" stroke="#ffffff" stroke-width="1"/><line x1="340" y1="30" x2="340" y2="570" stroke="#ffffff" stroke-width="1"/><line x1="410" y1="30" x2="410" y2="570" stroke="#ffffff" stroke-width="1"/><line x1="480" y1="30" x2="480" y2="570" stroke="#ffffff" stroke-width="1"/><line x1="550" y1="30" x2="550" y2="570" stroke="#ffffff" stroke-width="1"/><line x1="620" y1="30" x2="620" y2="570" stroke="#ffffff" stroke-width="1"/><line x1="690" y1="30" x2="690" y2="570" stroke="#ffffff" stroke-width="1"/><line x1="760" y1="30" x2="760" y2="570" stroke="#ffffff" stroke-width="1"/><line x1="830" y1="30" x2="830" y2="570" stroke="#ffffff" stroke-width="1"/><line x1="900" y1="30" x2="900" y2="570" stroke="#ffffff" stroke-width="1"/><line x1="970" y1="30" x2="970" y2="570" stroke="#ffffff" stroke-width="1"/>
    <line x1="30" y1="60" x2="950" y2="60" stroke="#ffffff" stroke-width="1"/><line x1="30" y1="130" x2="950" y2="130" stroke="#ffffff" stroke-width="1"/><line x1="30" y1="200" x2="950" y2="200" stroke="#ffffff" stroke-width="1"/><line x1="30" y1="270" x2="950" y2="270" stroke="#ffffff" stroke-width="1"/><line x1="30" y1="340" x2="950" y2="340" stroke="#ffffff" stroke-width="1"/><line x1="30" y1="410" x2="950" y2="410" stroke="#ffffff" stroke-width="1"/><line x1="30" y1="480" x2="950" y2="480" stroke="#ffffff" stroke-width="1"/><line x1="30" y1="550" x2="950" y2="550" stroke="#ffffff" stroke-width="1"/>
  </g>
  <path d="M 180 210 L 360 160 L 520 240 L 470 420 L 260 460 L 140 330 Z"
        fill="rgba(79,200,255,0.18)" stroke="rgba(79,200,255,0.65)" stroke-width="3"/>
  <path d="M 620 190 L 820 160 L 880 290 L 760 440 L 610 360 Z"
        fill="rgba(255,122,78,0.14)" stroke="rgba(255,122,78,0.55)" stroke-width="3"/>
  <circle cx="350" cy="320" r="10" fill="#b26eff"/>
  <circle cx="760" cy="280" r="10" fill="#4fc8ff"/>
  <path d="M 350 320 C 360 270, 420 250, 470 230" fill="none" stroke="rgba(255,255,255,0.28)" stroke-width="2"/>
  <path d="M 760 280 C 720 320, 690 340, 650 350" fill="none" stroke="rgba(255,255,255,0.28)" stroke-width="2"/>

  <!-- left sidebar (KML) -->
  <g transform="translate(36 36)">
    <rect width="240" height="528" rx="18" fill="rgba(0,0,0,0.22)" stroke="rgba(255,255,255,0.12)"/>
    <rect x="18" y="18" width="204" height="40" rx="12" fill="rgba(255,255,255,0.06)"/>
    <rect x="18" y="80" width="204" height="18" rx="9" fill="rgba(255,255,255,0.05)"/>
    <rect x="18" y="112" width="180" height="18" rx="9" fill="rgba(255,255,255,0.04)"/>
    <rect x="18" y="160" width="204" height="18" rx="9" fill="rgba(255,255,255,0.05)"/>
    <rect x="18" y="192" width="160" height="18" rx="9" fill="rgba(255,255,255,0.04)"/>
    <rect x="18" y="240" width="204" height="18" rx="9" fill="rgba(255,255,255,0.05)"/>
    <rect x="18" y="272" width="190" height="18" rx="9" fill="rgba(255,255,255,0.04)"/>
    <circle cx="34" cy="38" r="7" fill="#4fc8ff"/>
    <circle cx="56" cy="38" r="7" fill="#ff7a4e"/>
    <circle cx="78" cy="38" r="7" fill="#b26eff"/>
  </g>
</g>

</svg>